<svg width="20" height="20" viewBox="0 0 20 20" fill="none" xmlns="http://www.w3.org/2000/svg">
<path fill-rule="evenodd" clip-rule="evenodd" d="M4.41083 4.4107C4.73626 4.08527 5.2639 4.08527 5.58934 4.4107L10.0001 8.82145L14.4108 4.4107C14.7363 4.08527 15.2639 4.08527 15.5893 4.4107C15.9148 4.73614 15.9148 5.26378 15.5893 5.58921L11.1786 9.99996L15.5893 14.4107C15.9148 14.7361 15.9148 15.2638 15.5893 15.5892C15.2639 15.9147 14.7363 15.9147 14.4108 15.5892L10.0001 11.1785L5.58934 15.5892C5.2639 15.9147 4.73626 15.9147 4.41083 15.5892C4.08539 15.2638 4.08539 14.7361 4.41083 14.4107L8.82157 9.99996L4.41083 5.58921C4.08539 5.26378 4.08539 4.73614 4.41083 4.4107Z" fill="#F9FAFA"/>
</svg>
